<svg width="18" height="16" viewBox="0 0 18 16" fill="none" xmlns="http://www.w3.org/2000/svg">
<path fill-rule="evenodd" clip-rule="evenodd" d="M11.3999 3.5C11.3999 2.83696 11.119 2.20107 10.6189 1.73223C10.1188 1.26339 9.44051 1 8.73327 1C8.02602 1 7.34775 1.26339 6.84765 1.73223C6.34755 2.20107 6.0666 2.83696 6.0666 3.5V4H11.3999V3.5ZM12.4666 3.5V4H16.1999V14C16.1999 14.5304 15.9752 15.0391 15.5751 15.4142C15.175 15.7893 14.6324 16 14.0666 16H3.39994C2.83414 16 2.29152 15.7893 1.89144 15.4142C1.49136 15.0391 1.2666 14.5304 1.2666 14V4H4.99994V3.5C4.99994 2.57174 5.39327 1.6815 6.0934 1.02513C6.79354 0.368749 7.74313 0 8.73327 0C9.72341 0 10.673 0.368749 11.3731 1.02513C12.0733 1.6815 12.4666 2.57174 12.4666 3.5ZM9.2666 8C9.2666 7.86739 9.21041 7.74021 9.11039 7.64645C9.01037 7.55268 8.87472 7.5 8.73327 7.5C8.59182 7.5 8.45616 7.55268 8.35614 7.64645C8.25613 7.74021 8.19994 7.86739 8.19994 8V9.5H6.59994C6.45849 9.5 6.32283 9.55268 6.22281 9.64645C6.12279 9.74021 6.0666 9.86739 6.0666 10C6.0666 10.1326 6.12279 10.2598 6.22281 10.3536C6.32283 10.4473 6.45849 10.5 6.59994 10.5H8.19994V12C8.19994 12.1326 8.25613 12.2598 8.35614 12.3536C8.45616 12.4473 8.59182 12.5 8.73327 12.5C8.87472 12.5 9.01037 12.4473 9.11039 12.3536C9.21041 12.2598 9.2666 12.1326 9.2666 12V10.5H10.8666C11.0081 10.5 11.1437 10.4473 11.2437 10.3536C11.3437 10.2598 11.3999 10.1326 11.3999 10C11.3999 9.86739 11.3437 9.74021 11.2437 9.64645C11.1437 9.55268 11.0081 9.5 10.8666 9.5H9.2666V8Z" fill="white"/>
</svg>
