<svg width="20" height="20" viewBox="0 0 20 20" fill="none" xmlns="http://www.w3.org/2000/svg">
<path d="M7.50008 16.6667H5.00008C4.11603 16.6667 3.26818 16.3155 2.64306 15.6904C2.01794 15.0652 1.66675 14.2174 1.66675 13.3333V5.83333C1.66675 4.94928 2.01794 4.10143 2.64306 3.47631C3.26818 2.85119 4.11603 2.5 5.00008 2.5H14.1667C15.0508 2.5 15.8986 2.85119 16.5238 3.47631C17.1489 4.10143 17.5001 4.94928 17.5001 5.83333V8.33333" stroke="#007FFF" stroke-width="2" stroke-linecap="round" stroke-linejoin="round"/>
<path d="M6.66675 1.66667V3.33333" stroke="#007FFF" stroke-width="2" stroke-linecap="round" stroke-linejoin="round"/>
<path d="M12.5 1.66667V3.33333" stroke="#007FFF" stroke-width="2" stroke-linecap="round" stroke-linejoin="round"/>
<path d="M1.66675 6.66667H17.5001" stroke="#007FFF" stroke-width="2" stroke-linecap="round" stroke-linejoin="round"/>
<path d="M15.4167 13.0358L14.1667 14.2858" stroke="#007FFF" stroke-width="2" stroke-linecap="round" stroke-linejoin="round"/>
<path d="M14.1667 18.3333C16.4679 18.3333 18.3333 16.4679 18.3333 14.1667C18.3333 11.8655 16.4679 10 14.1667 10C11.8655 10 10 11.8655 10 14.1667C10 16.4679 11.8655 18.3333 14.1667 18.3333Z" stroke="#007FFF" stroke-width="2" stroke-linecap="round" stroke-linejoin="round"/>
</svg>
