<svg width="20" height="19" viewBox="0 0 20 19" fill="none" xmlns="http://www.w3.org/2000/svg">
<path d="M19.3324 16.29L15.6896 12.9C16.8649 11.5025 17.5026 9.77666 17.5003 8C17.5003 6.41775 16.9976 4.87103 16.0557 3.55544C15.1139 2.23985 13.7752 1.21447 12.209 0.608967C10.6428 0.00346625 8.91934 -0.15496 7.25665 0.153721C5.59396 0.462403 4.06667 1.22433 2.86794 2.34315C1.6692 3.46197 0.852854 4.88743 0.522123 6.43928C0.191393 7.99113 0.361136 9.59966 1.00989 11.0615C1.65864 12.5233 2.75726 13.7727 4.16682 14.6518C5.57639 15.5308 7.23359 16 8.92885 16C10.8324 16.0022 12.6815 15.407 14.1789 14.31L17.811 17.71C17.9106 17.8037 18.0291 17.8781 18.1597 17.9289C18.2902 17.9797 18.4303 18.0058 18.5717 18.0058C18.7132 18.0058 18.8532 17.9797 18.9838 17.9289C19.1143 17.8781 19.2328 17.8037 19.3324 17.71C19.4328 17.617 19.5126 17.5064 19.5669 17.3846C19.6213 17.2627 19.6493 17.132 19.6493 17C19.6493 16.868 19.6213 16.7373 19.5669 16.6154C19.5126 16.4936 19.4328 16.383 19.3324 16.29ZM2.50028 8C2.50028 6.81332 2.87731 5.65328 3.58369 4.66658C4.29007 3.67989 5.29408 2.91085 6.46875 2.45673C7.64341 2.0026 8.93598 1.88378 10.183 2.11529C11.43 2.3468 12.5755 2.91825 13.4745 3.75736C14.3736 4.59648 14.9859 5.66558 15.2339 6.82946C15.4819 7.99335 15.3546 9.19975 14.8681 10.2961C14.3815 11.3925 13.5575 12.3295 12.5004 12.9888C11.4432 13.6481 10.2003 14 8.92885 14C7.22389 14 5.58876 13.3679 4.38317 12.2426C3.17758 11.1174 2.50028 9.5913 2.50028 8Z" fill="#ABABAD"/>
</svg>
