<svg width="24" height="25" viewBox="0 0 24 25" fill="none" xmlns="http://www.w3.org/2000/svg">
<path d="M11.386 2.71021C11.5615 2.57365 11.7776 2.49951 12 2.49951C12.2224 2.49951 12.4385 2.57365 12.614 2.71021L20.842 9.11021C21.2028 9.3909 21.4948 9.75035 21.6955 10.1611C21.8962 10.5719 22.0003 11.023 22 11.4802V20.5002C22 21.0306 21.7893 21.5393 21.4142 21.9144C21.0391 22.2895 20.5304 22.5002 20 22.5002H16C15.4696 22.5002 14.9609 22.2895 14.5858 21.9144C14.2107 21.5393 14 21.0306 14 20.5002V14.5002H10V20.5002C10 21.0306 9.78929 21.5393 9.41421 21.9144C9.03914 22.2895 8.53043 22.5002 8 22.5002H4C3.46957 22.5002 2.96086 22.2895 2.58579 21.9144C2.21071 21.5393 2 21.0306 2 20.5002V11.4802C2 10.5522 2.428 9.68021 3.16 9.11021L11.386 2.71021V2.71021ZM12 4.76621L4.386 10.6882C4.26545 10.782 4.16799 10.9021 4.10108 11.0394C4.03416 11.1767 3.99959 11.3275 4 11.4802V20.5002H8V14.5002C8 13.9698 8.21071 13.4611 8.58579 13.086C8.96086 12.7109 9.46957 12.5002 10 12.5002H14C14.5304 12.5002 15.0391 12.7109 15.4142 13.086C15.7893 13.4611 16 13.9698 16 14.5002V20.5002H20V11.4802C20.0004 11.3275 19.9658 11.1767 19.8989 11.0394C19.832 10.9021 19.7345 10.782 19.614 10.6882L12 4.76821V4.76621Z" fill="#ABABAD"/>
</svg>
